<?xml version="1.0" encoding="UTF-8"?>
<svg width="800px" height="600px" viewBox="0 0 800 600" version="1.1" xmlns="http://www.w3.org/2000/svg" xmlns:xlink="http://www.w3.org/1999/xlink">
    <title>Hero Background</title>
    <defs>
        <linearGradient x1="0%" y1="0%" x2="100%" y2="100%" id="linearGradient-1">
            <stop stop-color="#0A0A1E" offset="0%"></stop>
            <stop stop-color="#000000" offset="100%"></stop>
        </linearGradient>
        <linearGradient x1="50%" y1="0%" x2="50%" y2="100%" id="linearGradient-2">
            <stop stop-color="#FF00FF" stop-opacity="0.5" offset="0%"></stop>
            <stop stop-color="#00FFFF" stop-opacity="0.3" offset="100%"></stop>
        </linearGradient>
        <linearGradient x1="0%" y1="0%" x2="100%" y2="100%" id="linearGradient-3">
            <stop stop-color="#00FFFF" stop-opacity="0.7" offset="0%"></stop>
            <stop stop-color="#FF00FF" stop-opacity="0.5" offset="100%"></stop>
        </linearGradient>
    </defs>
    <g id="Hero-Background" stroke="none" stroke-width="1" fill="none" fill-rule="evenodd">
        <rect id="Background" fill="url(#linearGradient-1)" x="0" y="0" width="800" height="600"></rect>
        
        <!-- Grid Pattern -->
        <g id="Grid" stroke="#00FFFF" stroke-width="0.5" opacity="0.15">
            <g id="Vertical-Lines">
                <line x1="50" y1="0" x2="50" y2="600"></line>
                <line x1="100" y1="0" x2="100" y2="600"></line>
                <line x1="150" y1="0" x2="150" y2="600"></line>
                <line x1="200" y1="0" x2="200" y2="600"></line>
                <line x1="250" y1="0" x2="250" y2="600"></line>
                <line x1="300" y1="0" x2="300" y2="600"></line>
                <line x1="350" y1="0" x2="350" y2="600"></line>
                <line x1="400" y1="0" x2="400" y2="600"></line>
                <line x1="450" y1="0" x2="450" y2="600"></line>
                <line x1="500" y1="0" x2="500" y2="600"></line>
                <line x1="550" y1="0" x2="550" y2="600"></line>
                <line x1="600" y1="0" x2="600" y2="600"></line>
                <line x1="650" y1="0" x2="650" y2="600"></line>
                <line x1="700" y1="0" x2="700" y2="600"></line>
                <line x1="750" y1="0" x2="750" y2="600"></line>
            </g>
            <g id="Horizontal-Lines">
                <line x1="0" y1="50" x2="800" y2="50"></line>
                <line x1="0" y1="100" x2="800" y2="100"></line>
                <line x1="0" y1="150" x2="800" y2="150"></line>
                <line x1="0" y1="200" x2="800" y2="200"></line>
                <line x1="0" y1="250" x2="800" y2="250"></line>
                <line x1="0" y1="300" x2="800" y2="300"></line>
                <line x1="0" y1="350" x2="800" y2="350"></line>
                <line x1="0" y1="400" x2="800" y2="400"></line>
                <line x1="0" y1="450" x2="800" y2="450"></line>
                <line x1="0" y1="500" x2="800" y2="500"></line>
                <line x1="0" y1="550" x2="800" y2="550"></line>
            </g>
        </g>
        
        <!-- Cyberpunk Elements -->
        <g id="Cyberpunk-Elements">
            <!-- Circuit Lines -->
            <path d="M50,150 L200,150 L200,300 L350,300 L350,450 L500,450 L500,600" stroke="#00FFFF" stroke-width="2" opacity="0.7"></path>
            <path d="M750,50 L600,50 L600,200 L450,200 L450,350 L300,350 L300,500 L150,500" stroke="#FF00FF" stroke-width="2" opacity="0.7"></path>
            
            <!-- Nodes -->
            <circle cx="200" cy="150" r="5" fill="#00FFFF" opacity="0.9"></circle>
            <circle cx="200" cy="300" r="5" fill="#00FFFF" opacity="0.9"></circle>
            <circle cx="350" cy="300" r="5" fill="#00FFFF" opacity="0.9"></circle>
            <circle cx="350" cy="450" r="5" fill="#00FFFF" opacity="0.9"></circle>
            <circle cx="500" cy="450" r="5" fill="#00FFFF" opacity="0.9"></circle>
            
            <circle cx="600" cy="50" r="5" fill="#FF00FF" opacity="0.9"></circle>
            <circle cx="600" cy="200" r="5" fill="#FF00FF" opacity="0.9"></circle>
            <circle cx="450" cy="200" r="5" fill="#FF00FF" opacity="0.9"></circle>
            <circle cx="450" cy="350" r="5" fill="#FF00FF" opacity="0.9"></circle>
            <circle cx="300" cy="350" r="5" fill="#FF00FF" opacity="0.9"></circle>
            <circle cx="300" cy="500" r="5" fill="#FF00FF" opacity="0.9"></circle>
            
            <!-- Geometric Shapes -->
            <polygon points="700,100 750,150 700,200 650,150" fill="url(#linearGradient-3)" opacity="0.6"></polygon>
            <rect x="100" y="400" width="80" height="80" transform="rotate(45 140 440)" stroke="#00FF00" stroke-width="2" opacity="0.6"></rect>
            <circle cx="400" cy="150" r="60" stroke="#FF00FF" stroke-width="3" opacity="0.4" fill="none"></circle>
            
            <!-- Digital Noise -->
            <g id="Digital-Noise" opacity="0.2">
                <rect x="50" y="50" width="10" height="10" fill="#00FFFF"></rect>
                <rect x="150" y="120" width="5" height="15" fill="#FF00FF"></rect>
                <rect x="250" y="200" width="8" height="8" fill="#00FF00"></rect>
                <rect x="350" y="80" width="12" height="6" fill="#00FFFF"></rect>
                <rect x="450" y="300" width="7" height="7" fill="#FF00FF"></rect>
                <rect x="550" y="400" width="9" height="9" fill="#00FF00"></rect>
                <rect x="650" y="250" width="11" height="5" fill="#00FFFF"></rect>
                <rect x="720" y="350" width="6" height="14" fill="#FF00FF"></rect>
                <rect x="100" y="500" width="10" height="10" fill="#00FF00"></rect>
                <rect x="200" y="450" width="8" height="8" fill="#00FFFF"></rect>
                <rect x="300" y="550" width="7" height="7" fill="#FF00FF"></rect>
                <rect x="400" y="520" width="9" height="9" fill="#00FF00"></rect>
                <rect x="500" y="100" width="11" height="5" fill="#00FFFF"></rect>
                <rect x="600" y="150" width="6" height="14" fill="#FF00FF"></rect>
                <rect x="700" y="300" width="10" height="10" fill="#00FF00"></rect>
            </g>
            
            <!-- Glow Effects -->
            <circle cx="400" cy="300" r="150" fill="url(#linearGradient-2)" opacity="0.2" filter="blur(40px)"></circle>
            <circle cx="200" cy="150" r="30" fill="#00FFFF" opacity="0.1" filter="blur(20px)"></circle>
            <circle cx="600" cy="450" r="40" fill="#FF00FF" opacity="0.1" filter="blur(20px)"></circle>
        </g>
    </g>
</svg>
