<?xml version="1.0" encoding="UTF-8"?>
<svg width="300px" height="300px" viewBox="0 0 300 300" version="1.1" xmlns="http://www.w3.org/2000/svg" xmlns:xlink="http://www.w3.org/1999/xlink">
    <title>Project Thumbnail 3</title>
    <defs>
        <linearGradient x1="0%" y1="0%" x2="100%" y2="100%" id="linearGradient-1">
            <stop stop-color="#0A0A1E" offset="0%"></stop>
            <stop stop-color="#000000" offset="100%"></stop>
        </linearGradient>
        <linearGradient x1="50%" y1="0%" x2="50%" y2="100%" id="linearGradient-2">
            <stop stop-color="#FF00FF" stop-opacity="0.7" offset="0%"></stop>
            <stop stop-color="#00FF00" stop-opacity="0.5" offset="100%"></stop>
        </linearGradient>
    </defs>
    <g id="Project-Thumbnail-3" stroke="none" stroke-width="1" fill="none" fill-rule="evenodd">
        <rect id="Background" fill="url(#linearGradient-1)" x="0" y="0" width="300" height="300"></rect>
        
        <!-- Cyberpunk Neural Network -->
        <g id="Neural-Network" transform="translate(30, 30)">
            <!-- Nodes -->
            <circle cx="30" cy="30" r="10" fill="#FF00FF" opacity="0.8"></circle>
            <circle cx="90" cy="30" r="10" fill="#00FFFF" opacity="0.8"></circle>
            <circle cx="150" cy="30" r="10" fill="#FF00FF" opacity="0.8"></circle>
            <circle cx="210" cy="30" r="10" fill="#00FFFF" opacity="0.8"></circle>
            
            <circle cx="60" cy="90" r="10" fill="#00FFFF" opacity="0.8"></circle>
            <circle cx="120" cy="90" r="10" fill="#FF00FF" opacity="0.8"></circle>
            <circle cx="180" cy="90" r="10" fill="#00FFFF" opacity="0.8"></circle>
            
            <circle cx="30" cy="150" r="10" fill="#FF00FF" opacity="0.8"></circle>
            <circle cx="90" cy="150" r="10" fill="#00FFFF" opacity="0.8"></circle>
            <circle cx="150" cy="150" r="10" fill="#FF00FF" opacity="0.8"></circle>
            <circle cx="210" cy="150" r="10" fill="#00FFFF" opacity="0.8"></circle>
            
            <circle cx="60" cy="210" r="10" fill="#00FFFF" opacity="0.8"></circle>
            <circle cx="120" cy="210" r="10" fill="#FF00FF" opacity="0.8"></circle>
            <circle cx="180" cy="210" r="10" fill="#00FFFF" opacity="0.8"></circle>
            
            <!-- Connections -->
            <line x1="30" y1="30" x2="60" y2="90" stroke="#FF00FF" stroke-width="1" opacity="0.6"></line>
            <line x1="30" y1="30" x2="120" y2="90" stroke="#FF00FF" stroke-width="1" opacity="0.6"></line>
            <line x1="90" y1="30" x2="60" y2="90" stroke="#00FFFF" stroke-width="1" opacity="0.6"></line>
            <line x1="90" y1="30" x2="120" y2="90" stroke="#00FFFF" stroke-width="1" opacity="0.6"></line>
            <line x1="90" y1="30" x2="180" y2="90" stroke="#00FFFF" stroke-width="1" opacity="0.6"></line>
            <line x1="150" y1="30" x2="120" y2="90" stroke="#FF00FF" stroke-width="1" opacity="0.6"></line>
            <line x1="150" y1="30" x2="180" y2="90" stroke="#FF00FF" stroke-width="1" opacity="0.6"></line>
            <line x1="210" y1="30" x2="180" y2="90" stroke="#00FFFF" stroke-width="1" opacity="0.6"></line>
            
            <line x1="60" y1="90" x2="30" y2="150" stroke="#00FFFF" stroke-width="1" opacity="0.6"></line>
            <line x1="60" y1="90" x2="90" y2="150" stroke="#00FFFF" stroke-width="1" opacity="0.6"></line>
            <line x1="120" y1="90" x2="30" y2="150" stroke="#FF00FF" stroke-width="1" opacity="0.6"></line>
            <line x1="120" y1="90" x2="90" y2="150" stroke="#FF00FF" stroke-width="1" opacity="0.6"></line>
            <line x1="120" y1="90" x2="150" y2="150" stroke="#FF00FF" stroke-width="1" opacity="0.6"></line>
            <line x1="180" y1="90" x2="90" y2="150" stroke="#00FFFF" stroke-width="1" opacity="0.6"></line>
            <line x1="180" y1="90" x2="150" y2="150" stroke="#00FFFF" stroke-width="1" opacity="0.6"></line>
            <line x1="180" y1="90" x2="210" y2="150" stroke="#00FFFF" stroke-width="1" opacity="0.6"></line>
            
            <line x1="30" y1="150" x2="60" y2="210" stroke="#FF00FF" stroke-width="1" opacity="0.6"></line>
            <line x1="30" y1="150" x2="120" y2="210" stroke="#FF00FF" stroke-width="1" opacity="0.6"></line>
            <line x1="90" y1="150" x2="60" y2="210" stroke="#00FFFF" stroke-width="1" opacity="0.6"></line>
            <line x1="90" y1="150" x2="120" y2="210" stroke="#00FFFF" stroke-width="1" opacity="0.6"></line>
            <line x1="150" y1="150" x2="120" y2="210" stroke="#FF00FF" stroke-width="1" opacity="0.6"></line>
            <line x1="150" y1="150" x2="180" y2="210" stroke="#FF00FF" stroke-width="1" opacity="0.6"></line>
            <line x1="210" y1="150" x2="180" y2="210" stroke="#00FFFF" stroke-width="1" opacity="0.6"></line>
            
            <!-- Data Pulses -->
            <circle cx="45" cy="60" r="3" fill="#FF00FF" opacity="0.9">
                <animate attributeName="opacity" values="0.9;0.3;0.9" dur="2s" repeatCount="indefinite" />
            </circle>
            <circle cx="105" cy="60" r="3" fill="#00FFFF" opacity="0.9">
                <animate attributeName="opacity" values="0.9;0.3;0.9" dur="1.5s" repeatCount="indefinite" />
            </circle>
            <circle cx="165" cy="60" r="3" fill="#FF00FF" opacity="0.9">
                <animate attributeName="opacity" values="0.9;0.3;0.9" dur="2.5s" repeatCount="indefinite" />
            </circle>
            <circle cx="90" cy="120" r="3" fill="#00FFFF" opacity="0.9">
                <animate attributeName="opacity" values="0.9;0.3;0.9" dur="2s" repeatCount="indefinite" />
            </circle>
            <circle cx="150" cy="120" r="3" fill="#FF00FF" opacity="0.9">
                <animate attributeName="opacity" values="0.9;0.3;0.9" dur="1.8s" repeatCount="indefinite" />
            </circle>
            <circle cx="45" cy="180" r="3" fill="#FF00FF" opacity="0.9">
                <animate attributeName="opacity" values="0.9;0.3;0.9" dur="2.2s" repeatCount="indefinite" />
            </circle>
            <circle cx="105" cy="180" r="3" fill="#00FFFF" opacity="0.9">
                <animate attributeName="opacity" values="0.9;0.3;0.9" dur="1.7s" repeatCount="indefinite" />
            </circle>
        </g>
        
        <!-- Digital Noise -->
        <g id="Digital-Noise" opacity="0.3">
            <rect x="20" y="20" width="4" height="4" fill="#00FFFF"></rect>
            <rect x="50" y="40" width="3" height="6" fill="#FF00FF"></rect>
            <rect x="80" y="60" width="5" height="3" fill="#00FF00"></rect>
            <rect x="200" y="30" width="4" height="4" fill="#00FFFF"></rect>
            <rect x="230" y="70" width="3" height="3" fill="#FF00FF"></rect>
            <rect x="40" y="200" width="5" height="5" fill="#00FF00"></rect>
            <rect x="100" y="220" width="3" height="6" fill="#00FFFF"></rect>
            <rect x="180" y="240" width="4" height="4" fill="#FF00FF"></rect>
        </g>
        
        <!-- Glow Effects -->
        <circle cx="150" cy="150" r="100" fill="url(#linearGradient-2)" opacity="0.2" filter="blur(15px)"></circle>
    </g>
</svg>
