<?xml version="1.0" encoding="UTF-8"?>
<svg width="200px" height="200px" viewBox="0 0 200 200" version="1.1" xmlns="http://www.w3.org/2000/svg" xmlns:xlink="http://www.w3.org/1999/xlink">
    <title>Service Icon 2 - UI/UX Design</title>
    <defs>
        <linearGradient x1="0%" y1="0%" x2="100%" y2="100%" id="linearGradient-1">
            <stop stop-color="#0A0A1E" offset="0%"></stop>
            <stop stop-color="#000000" offset="100%"></stop>
        </linearGradient>
        <linearGradient x1="50%" y1="0%" x2="50%" y2="100%" id="linearGradient-2">
            <stop stop-color="#FF00FF" stop-opacity="0.7" offset="0%"></stop>
            <stop stop-color="#00FF00" stop-opacity="0.5" offset="100%"></stop>
        </linearGradient>
    </defs>
    <g id="Service-Icon-2" stroke="none" stroke-width="1" fill="none" fill-rule="evenodd">
        <circle id="Background" fill="url(#linearGradient-1)" cx="100" cy="100" r="100"></circle>
        
        <!-- UI/UX Design Icon -->
        <g id="UI-UX-Icon" transform="translate(40, 40)">
            <!-- Design Grid -->
            <g id="Grid" stroke="#00FFFF" stroke-width="0.5" opacity="0.3">
                <line x1="0" y1="0" x2="120" y2="0"></line>
                <line x1="0" y1="20" x2="120" y2="20"></line>
                <line x1="0" y1="40" x2="120" y2="40"></line>
                <line x1="0" y1="60" x2="120" y2="60"></line>
                <line x1="0" y1="80" x2="120" y2="80"></line>
                <line x1="0" y1="100" x2="120" y2="100"></line>
                <line x1="0" y1="120" x2="120" y2="120"></line>
                
                <line x1="0" y1="0" x2="0" y2="120"></line>
                <line x1="20" y1="0" x2="20" y2="120"></line>
                <line x1="40" y1="0" x2="40" y2="120"></line>
                <line x1="60" y1="0" x2="60" y2="120"></line>
                <line x1="80" y1="0" x2="80" y2="120"></line>
                <line x1="100" y1="0" x2="100" y2="120"></line>
                <line x1="120" y1="0" x2="120" y2="120"></line>
            </g>
            
            <!-- UI Elements -->
            <rect x="20" y="20" width="80" height="15" rx="2" fill="#FF00FF" opacity="0.8"></rect>
            <rect x="20" y="45" width="35" height="35" rx="2" fill="#00FFFF" opacity="0.7"></rect>
            <rect x="65" y="45" width="35" height="35" rx="2" fill="#00FFFF" opacity="0.7"></rect>
            <rect x="20" y="90" width="80" height="10" rx="2" fill="#00FF00" opacity="0.7"></rect>
            
            <!-- Design Tools -->
            <circle cx="10" cy="10" r="5" stroke="#FF00FF" stroke-width="1" opacity="0.9"></circle>
            <circle cx="110" cy="10" r="5" stroke="#FF00FF" stroke-width="1" opacity="0.9"></circle>
            <circle cx="10" cy="110" r="5" stroke="#FF00FF" stroke-width="1" opacity="0.9"></circle>
            <circle cx="110" cy="110" r="5" stroke="#FF00FF" stroke-width="1" opacity="0.9"></circle>
            
            <!-- Pen Tool -->
            <path d="M100,40 L110,30 L115,35 L105,45 Z" fill="#FF00FF" opacity="0.9"></path>
            <line x1="105" y1="45" x2="115" y2="55" stroke="#FF00FF" stroke-width="1" opacity="0.9"></line>
            
            <!-- Color Palette -->
            <circle cx="15" cy="70" r="5" fill="#FF00FF" opacity="0.9"></circle>
            <circle cx="15" cy="85" r="5" fill="#00FFFF" opacity="0.9"></circle>
            <circle cx="15" cy="100" r="5" fill="#00FF00" opacity="0.9"></circle>
            
            <!-- Connection Lines -->
            <path d="M0,0 L0,-10 L120,-10 L120,0" stroke="#FF00FF" stroke-width="1" opacity="0.7"></path>
            <path d="M0,120 L0,130 L120,130 L120,120" stroke="#FF00FF" stroke-width="1" opacity="0.7"></path>
            <path d="M0,0 L-10,0 L-10,120 L0,120" stroke="#FF00FF" stroke-width="1" opacity="0.7"></path>
            <path d="M120,0 L130,0 L130,120 L120,120" stroke="#FF00FF" stroke-width="1" opacity="0.7"></path>
        </g>
        
        <!-- Glow Effect -->
        <circle cx="100" cy="100" r="70" fill="url(#linearGradient-2)" opacity="0.2" filter="blur(10px)"></circle>
    </g>
</svg>
